<?xml version="1.0" standalone="no"?>
<!DOCTYPE svg PUBLIC "-//W3C//DTD SVG 20010904//EN"
 "http://www.w3.org/TR/2001/REC-SVG-20010904/DTD/svg10.dtd">
<svg version="1.0" xmlns="http://www.w3.org/2000/svg"
 width="164.000000pt" height="164.000000pt" viewBox="0 0 164.000000 164.000000"
 preserveAspectRatio="xMidYMid meet">
<metadata>
Created by potrace 1.14, written by Peter Selinger 2001-2017
</metadata>
<g transform="translate(0.000000,164.000000) scale(0.100000,-0.100000)"
fill="#000000" stroke="none">
<path d="M0 820 l0 -820 134 0 134 0 22 27 22 28 -16 -28 c-9 -15 -13 -27 -8
-27 8 0 42 52 42 65 0 3 -5 3 -11 -1 -14 -8 2 22 26 51 16 19 16 18 1 -7 -9
-15 -16 -30 -16 -34 0 -12 50 38 81 80 41 55 49 23 9 -40 -16 -27 -34 -64 -39
-82 -8 -27 -7 -32 7 -32 11 1 27 23 44 61 17 37 33 59 40 57 11 -4 26 -29 58
-98 6 -13 80 -15 559 -17 l551 -3 0 820 0 821 -325 -1 c-200 -1 -325 -5 -325
-11 0 -6 -8 -6 -19 1 -11 5 -41 10 -67 10 -40 0 -45 -2 -34 -15 16 -19 7 -19
-29 0 -23 12 -99 14 -435 15 l-406 0 0 -820z m1144 779 c-2 -4 -11 -6 -19 -2
-29 10 -15 -7 25 -32 45 -28 58 -32 40 -10 -7 8 -8 15 -3 15 14 0 94 -82 87
-89 -3 -3 -14 5 -24 19 -29 37 -24 9 5 -30 27 -36 31 -50 15 -50 -5 0 -10 9
-10 19 0 21 -26 36 -36 19 -4 -6 -15 0 -28 16 -21 26 -66 43 -66 25 0 -5 6 -9
13 -9 8 0 19 -11 25 -25 12 -27 2 -34 -17 -12 -6 8 -7 18 -3 22 4 5 1 5 -6 1
-8 -5 -21 -1 -33 10 -11 10 -27 19 -35 20 -13 2 -13 -1 1 -22 14 -22 12 -28
-6 -26 -4 1 0 -21 8 -49 8 -28 12 -53 8 -57 -4 -4 -10 -2 -12 5 -2 6 -15 23
-29 38 -27 29 -51 26 -34 -5 13 -25 13 -51 0 -30 -9 13 -10 13 -9 0 0 -8 7
-31 14 -50 13 -33 14 -33 14 -8 1 21 5 25 21 21 23 -6 35 -46 44 -138 3 -33 8
-85 12 -116 6 -57 6 -57 -22 -63 -16 -3 -51 -3 -79 -1 -27 3 -92 6 -144 6 -81
0 -102 -4 -142 -24 -66 -35 -138 -43 -180 -22 -24 13 -45 15 -78 11 -25 -4
-62 -9 -81 -12 -19 -2 -48 -9 -64 -14 -45 -15 -46 -14 -46 55 0 37 -4 65 -10
65 -17 0 -11 53 9 87 11 17 29 60 39 95 11 34 24 72 28 82 5 12 4 17 -3 13
-13 -8 -10 42 5 69 6 12 9 24 6 27 -3 3 0 8 7 13 7 4 10 3 6 -4 -5 -6 1 -8 15
-4 18 5 19 7 6 10 -11 2 -15 9 -12 20 3 9 -24 -13 -60 -51 -36 -37 -66 -63
-66 -59 0 5 3 12 7 16 5 4 8 11 9 14 1 13 24 62 28 62 2 0 2 -10 -2 -22 -5
-19 -4 -20 10 -7 9 7 14 17 11 22 -2 4 2 7 10 7 7 0 26 13 41 29 17 18 34 27
44 24 8 -4 20 0 26 8 24 31 67 57 86 52 11 -3 26 -1 33 4 6 5 30 10 52 11 l40
2 -38 -14 c-21 -8 -42 -18 -45 -22 -4 -4 2 -4 13 1 43 16 58 18 51 7 -4 -7 -2
-12 4 -12 6 0 8 -5 4 -11 -4 -8 0 -9 15 -4 12 4 21 2 21 -4 0 -6 12 -11 28
-11 23 -1 21 -3 -20 -22 -52 -22 -56 -29 -33 -48 12 -10 15 -10 15 0 0 10 3
10 15 0 8 -6 23 -9 35 -5 26 8 26 -7 0 -30 -11 -10 -20 -23 -20 -29 1 -6 9 -1
19 12 11 12 26 22 35 22 8 0 18 5 21 10 3 6 17 10 31 10 14 0 27 7 30 15 4 8
10 15 16 15 5 0 6 -6 1 -12 -4 -7 5 -5 20 5 34 22 58 22 85 -3 28 -27 46 -27
32 0 -9 16 -8 18 5 14 17 -7 20 1 5 19 -64 78 -69 87 -50 87 6 0 16 -11 22
-25 6 -14 18 -25 26 -25 12 0 12 3 2 15 -10 12 -9 16 4 21 9 3 13 11 9 18 -3
6 6 0 22 -14 23 -21 27 -22 21 -6 -5 16 -4 17 8 6 9 -6 14 -16 13 -22 -1 -5 8
-14 20 -18 21 -9 21 -8 5 21 -9 16 -20 29 -24 29 -5 0 -8 5 -8 10 0 6 11 3 25
-6 26 -17 34 -7 13 15 -11 10 -10 12 2 9 8 -2 14 3 13 9 -2 10 3 10 22 1 13
-6 22 -15 19 -19z m-167 -15 c-3 -3 -12 -4 -19 -1 -8 3 -5 6 6 6 11 1 17 -2
13 -5z m-22 -84 c3 -6 -1 -7 -9 -4 -18 7 -21 14 -7 14 6 0 13 -4 16 -10z m225
-115 c7 -9 10 -18 7 -21 -10 -11 -37 5 -37 21 0 19 14 19 30 0z m197 -312 c-3
-10 -5 -4 -5 12 0 17 2 24 5 18 2 -7 2 -21 0 -30z m-1180 -10 c-3 -10 -5 -4
-5 12 0 17 2 24 5 18 2 -7 2 -21 0 -30z m1180 -45 c-3 -8 -6 -5 -6 6 -1 11 2
17 5 13 3 -3 4 -12 1 -19z m-257 -83 c11 -13 9 -20 -10 -40 -20 -22 -21 -25
-6 -31 11 -4 15 -14 11 -31 -6 -36 -8 -36 -44 -2 -18 17 -39 28 -47 25 -9 -3
-14 1 -14 14 0 16 5 18 36 13 31 -5 35 -3 34 13 -6 54 13 72 40 39z m-759 -37
c-35 -32 -43 -31 -47 6 -2 21 1 24 39 24 l41 1 -33 -31z m274 15 c-16 -3 -34
-9 -40 -14 -7 -7 -1 -8 17 -4 23 6 33 1 61 -30 18 -20 41 -49 50 -64 16 -28
16 -28 -8 -23 -21 4 -25 1 -25 -21 0 -31 -53 -65 -116 -74 -25 -3 -47 -10 -50
-15 -8 -12 16 -39 27 -32 5 3 23 -9 40 -27 30 -32 69 -49 69 -29 0 16 30 12
36 -5 9 -23 21 -18 28 11 4 16 12 24 20 21 8 -3 22 0 31 7 16 11 16 16 -3 77
l-20 64 99 9 c81 7 108 5 156 -9 32 -9 64 -19 71 -21 13 -4 16 -52 4 -70 -4
-7 -36 -26 -72 -43 -70 -33 -90 -33 -151 0 l-37 19 3 -44 c2 -24 8 -52 14 -62
8 -14 11 -15 10 -4 -3 32 2 45 10 25 5 -11 3 -27 -2 -37 -10 -15 -12 -14 -27
5 -10 12 -20 29 -23 37 -3 9 -6 3 -6 -14 -1 -20 -5 -27 -16 -22 -8 3 -21 -1
-29 -9 -19 -19 -26 -19 -26 0 0 8 -5 15 -11 15 -5 0 -7 -4 -4 -10 3 -5 -3 -10
-15 -10 -12 0 -30 -5 -42 -11 -16 -9 -24 -7 -41 9 -16 15 -27 18 -39 11 -9 -5
-40 -11 -68 -14 -28 -3 -59 -10 -68 -15 -14 -9 -13 -10 6 -5 13 4 22 2 22 -4
0 -6 -7 -11 -15 -11 -8 0 -15 -7 -15 -16 0 -13 7 -15 40 -9 26 4 46 3 55 -5
11 -9 16 -7 25 11 14 25 31 9 23 -21 -4 -15 1 -17 28 -14 38 5 52 14 21 14
-36 0 -15 26 24 28 32 2 34 1 28 -22 -6 -24 10 -44 21 -26 10 16 28 12 22 -4
-5 -12 -1 -13 16 -7 43 16 85 -12 78 -52 -1 -5 3 -6 9 -2 5 3 10 19 10 36 0
36 14 37 43 4 l22 -26 2 76 c2 45 -1 75 -7 75 -6 0 -10 7 -10 16 0 8 5 12 10
9 6 -3 16 -3 23 2 27 17 82 1 74 -22 -3 -7 -1 -17 5 -23 11 -11 -31 -98 -62
-125 -11 -9 -20 -28 -20 -41 0 -43 -9 -54 -40 -50 -21 4 -30 0 -33 -13 -3 -10
-3 2 -2 27 2 25 1 38 -2 30 -3 -8 -12 -19 -20 -23 -7 -5 -11 -12 -8 -18 4 -5
1 -9 -4 -9 -6 0 -11 -9 -11 -20 0 -11 -5 -20 -10 -20 -16 0 -89 -78 -81 -86 3
-4 0 -4 -7 0 -10 6 -9 12 3 29 8 12 15 34 15 48 0 15 5 29 12 31 7 3 9 11 4
24 -7 15 -11 10 -22 -28 -13 -41 -18 -47 -39 -46 -20 2 -24 6 -19 23 4 15 -3
11 -28 -15 -18 -19 -32 -41 -30 -48 3 -7 -2 -10 -11 -6 -10 3 -17 -1 -20 -13
-3 -10 -3 0 0 22 3 22 10 45 15 52 6 7 8 18 5 25 -3 8 -6 5 -7 -7 -1 -18 -3
-17 -12 5 l-11 25 -7 -35 c-4 -19 -8 -27 -9 -17 0 9 -5 17 -10 17 -10 0 -25
-30 -22 -46 1 -6 -10 -11 -24 -11 -14 0 -25 3 -25 8 0 5 3 8 8 8 18 -3 19 4 6
46 -7 26 -9 45 -4 45 6 0 10 8 10 18 0 9 -4 13 -8 7 -6 -9 -47 -35 -55 -35 -1
0 -1 27 0 60 2 62 -4 71 -31 45 -9 -9 -17 -11 -21 -5 -11 18 -27 11 -20 -9 3
-11 1 -22 -4 -25 -6 -4 -7 -14 -4 -24 4 -13 2 -13 -10 3 -9 11 -17 26 -17 33
0 7 -7 23 -15 36 -19 28 -32 96 -45 230 -6 54 -17 121 -25 150 -8 28 -13 60
-10 71 2 11 4 26 4 33 1 6 10 12 22 12 11 0 17 -4 14 -10 -3 -6 1 -7 9 -4 11
4 16 0 16 -15 0 -23 15 -29 23 -8 3 6 5 3 5 -8 -1 -11 3 -29 7 -39 6 -14 5
-17 -3 -12 -7 4 -12 15 -13 24 0 10 -3 12 -5 5 -3 -7 0 -21 6 -33 10 -19 12
-19 27 -4 11 11 13 18 5 23 -7 4 -9 16 -4 31 6 20 14 25 42 27 19 1 49 2 65 3
17 1 56 0 88 -2 56 -4 57 -3 57 23 0 34 7 39 49 38 34 -2 34 -2 6 -6z m258
-22 c4 -4 -7 -6 -25 -4 -32 3 -32 3 -8 -7 15 -7 48 -9 83 -5 l58 7 -7 -27 c-6
-22 -4 -26 7 -20 8 5 10 4 6 0 -4 -5 -13 -10 -20 -12 -42 -9 -103 -29 -107
-34 -16 -20 -72 -19 -113 1 -57 28 -73 53 -51 79 9 10 24 16 34 14 10 -3 31 2
46 11 29 16 80 14 97 -3z m347 -45 c0 -11 -19 -15 -25 -6 -3 5 1 10 9 10 9 0
16 -2 16 -4z m-18 -108 c-7 -7 -12 -8 -12 -2 0 14 12 26 19 19 2 -3 -1 -11 -7
-17z m-478 -14 c9 -23 8 -24 -14 -24 -19 0 -27 20 -13 33 11 11 20 8 27 -9z
m386 -359 c0 -8 -4 -15 -10 -15 -5 0 -7 7 -4 15 4 8 8 15 10 15 2 0 4 -7 4
-15z m-687 -120 c-3 -9 -8 -14 -10 -11 -3 3 -2 9 2 15 9 16 15 13 8 -4z m375
-37 c-8 -7 -20 -22 -26 -33 -11 -19 -11 -18 -12 7 0 17 6 28 18 31 31 8 36 7
20 -5z m-298 -79 c0 -6 -4 -7 -10 -4 -5 3 -10 11 -10 16 0 6 5 7 10 4 6 -3 10
-11 10 -16z m173 -14 c-3 -9 -8 -14 -10 -11 -3 3 -2 9 2 15 9 16 15 13 8 -4z
m-93 1 c0 -2 -7 -7 -16 -10 -8 -3 -12 -2 -9 4 6 10 25 14 25 6z"/>
<path d="M375 1500 c-3 -5 -1 -10 4 -10 6 0 11 5 11 10 0 6 -2 10 -4 10 -3 0
-8 -4 -11 -10z"/>
<path d="M470 1480 c-9 -6 -10 -10 -3 -10 6 0 15 5 18 10 8 12 4 12 -15 0z"/>
<path d="M600 1463 c5 -2 8 -9 4 -14 -3 -5 0 -9 6 -9 15 0 7 23 -8 26 -7 1 -8
0 -2 -3z"/>
<path d="M520 1400 c-8 -5 -12 -12 -9 -15 4 -3 12 1 19 10 14 17 11 19 -10 5z"/>
<path d="M434 1358 c-11 -13 -32 -42 -47 -66 -16 -23 -39 -48 -52 -54 -19 -9
-22 -14 -14 -25 15 -17 40 -17 65 2 41 31 46 11 8 -30 -14 -15 -23 -29 -21
-31 10 -11 56 40 81 90 29 57 29 80 1 56 -13 -11 -13 -8 0 30 8 23 15 44 15
46 0 11 -19 1 -36 -18z"/>
<path d="M714 1293 c-9 -32 -22 -76 -30 -97 -8 -22 -12 -42 -9 -44 8 -9 45 64
55 111 5 27 15 57 20 68 8 15 7 19 -4 19 -10 0 -21 -21 -32 -57z"/>
<path d="M641 1272 c-6 -13 -11 -40 -9 -60 l3 -37 13 43 c17 55 12 88 -7 54z"/>
<path d="M1021 1244 c0 -11 3 -14 6 -6 3 7 2 16 -1 19 -3 4 -6 -2 -5 -13z"/>
<path d="M520 746 c-6 -9 -10 -21 -8 -28 3 -8 9 -4 17 10 15 28 9 39 -9 18z"/>
<path d="M435 631 c-85 -74 -93 -92 -59 -126 l26 -26 22 23 c12 13 22 28 22
33 1 6 15 39 33 74 17 35 30 68 29 73 -2 5 -35 -18 -73 -51z"/>
<path d="M850 391 c0 -5 5 -13 10 -16 6 -3 10 -2 10 4 0 5 -4 13 -10 16 -5 3
-10 2 -10 -4z"/>
<path d="M880 352 c0 -7 7 -20 15 -28 19 -20 20 -4 0 22 -9 12 -14 14 -15 6z"/>
<path d="M681 323 c0 -4 4 -17 9 -28 8 -19 9 -19 9 2 1 12 -3 25 -9 28 -5 3
-10 3 -9 -2z"/>
<path d="M730 310 c0 -6 7 -10 15 -10 8 0 15 2 15 4 0 2 -7 6 -15 10 -8 3 -15
1 -15 -4z"/>
<path d="M777 303 c-10 -9 -9 -75 1 -69 8 4 16 76 9 76 -2 0 -7 -3 -10 -7z"/>
<path d="M679 263 c0 -5 -3 -19 -5 -32 -2 -14 -2 -22 2 -19 3 3 6 12 8 20 1 7
5 19 9 26 5 7 4 12 -2 12 -6 0 -11 -3 -12 -7z"/>
<path d="M490 236 c0 -8 5 -18 10 -21 6 -3 10 3 10 14 0 12 -4 21 -10 21 -5 0
-10 -6 -10 -14z"/>
<path d="M376 85 c-9 -26 -7 -32 5 -12 6 10 9 21 6 23 -2 3 -7 -2 -11 -11z"/>
<path d="M470 90 c-1 -8 -2 -32 -4 -52 -2 -27 1 -38 11 -38 15 0 18 67 3 90
-9 13 -10 13 -10 0z"/>
<path d="M355 39 c-4 -6 -5 -12 -2 -15 2 -3 7 2 10 11 7 17 1 20 -8 4z"/>
</g>
</svg>
